<?xml version="1.0" encoding="UTF-8"?>
<svg id="Layer_1" data-name="Layer 1" xmlns="http://www.w3.org/2000/svg" xmlns:xlink="http://www.w3.org/1999/xlink" version="1.1" viewBox="0 0 2000 2000">
  <defs>
    <style>
      .cls-1 {
        fill: url(#Summer_Yellow);
      }

      .cls-1, .cls-2, .cls-3, .cls-4, .cls-5, .cls-6, .cls-7, .cls-8, .cls-9, .cls-10, .cls-11 {
        stroke-width: 0px;
      }

      .cls-12 {
        font-family: Charm-Regular, Charm;
        font-size: 175.29px;
        letter-spacing: .17em;
      }

      .cls-12, .cls-8 {
        fill: #fff;
      }

      .cls-2 {
        fill: #dbdada;
      }

      .cls-3 {
        fill: #5d5d5d;
      }

      .cls-4 {
        fill: #000;
      }

      .cls-5 {
        fill: url(#Degradado_sin_nombre_2);
      }

      .cls-6 {
        fill: url(#New_Gradient_Swatch_copy_13);
      }

      .cls-7 {
        fill: url(#New_Gradient_Swatch_copy_37);
      }

      .cls-9 {
        fill: url(#Summer_Yellow-2);
      }

      .cls-10 {
        fill: url(#Summer_Yellow-4);
      }

      .cls-11 {
        fill: url(#Summer_Yellow-3);
      }
    </style>
    <linearGradient id="Summer_Yellow" data-name="Summer Yellow" x1="-406.26" y1="-37.89" x2="-236.54" y2="-37.89" gradientTransform="translate(969.28 593.77) rotate(-9.61)" gradientUnits="userSpaceOnUse">
      <stop offset="0" stop-color="#fcf3dd"/>
      <stop offset="0" stop-color="#faedc9"/>
      <stop offset="0" stop-color="#f6dd92"/>
      <stop offset=".55" stop-color="#f0c83b"/>
      <stop offset=".67" stop-color="#efc631"/>
      <stop offset="1" stop-color="#efc41a"/>
    </linearGradient>
    <linearGradient id="Summer_Yellow-2" data-name="Summer Yellow" x1="-279.93" y1="1152.69" x2="-110.21" y2="1152.69" gradientTransform="translate(541.01 318.87) rotate(-2.58)" xlink:href="#Summer_Yellow"/>
    <linearGradient id="Summer_Yellow-3" data-name="Summer Yellow" x1="-261.16" y1="71.03" x2="-154.1" y2="71.03" xlink:href="#Summer_Yellow"/>
    <linearGradient id="Summer_Yellow-4" data-name="Summer Yellow" x1="-92.67" y1="1102.52" x2="14.39" y2="1102.52" gradientTransform="translate(541.01 318.87) rotate(-2.58)" xlink:href="#Summer_Yellow"/>
    <linearGradient id="New_Gradient_Swatch_copy_37" data-name="New Gradient Swatch copy 37" x1="-3710.13" y1="-5287.36" x2="-3462.81" y2="-5287.36" gradientTransform="translate(7102.33 567.6) rotate(-57.86)" gradientUnits="userSpaceOnUse">
      <stop offset="0" stop-color="#f1a422"/>
      <stop offset="1" stop-color="#f1592f"/>
    </linearGradient>
    <linearGradient id="Degradado_sin_nombre_2" data-name="Degradado sin nombre 2" x1="-4236.72" y1="-5464.77" x2="-3656.11" y2="-5464.77" gradientTransform="translate(7102.33 567.6) rotate(-57.86)" gradientUnits="userSpaceOnUse">
      <stop offset="0" stop-color="#0034aa"/>
      <stop offset=".21" stop-color="#0052b5"/>
      <stop offset=".67" stop-color="#00a1d2"/>
      <stop offset="1" stop-color="#00dfe9"/>
    </linearGradient>
    <linearGradient id="New_Gradient_Swatch_copy_13" data-name="New Gradient Swatch copy 13" x1="-3872.38" y1="-4980.57" x2="-3261.93" y2="-4980.57" gradientTransform="translate(7102.33 567.6) rotate(-57.86)" gradientUnits="userSpaceOnUse">
      <stop offset="0" stop-color="#f0a422"/>
      <stop offset="1" stop-color="#f1592e"/>
    </linearGradient>
  </defs>
  <g>
    <g>
      <path class="cls-1" d="M729.73,595.91c-68.15,19.6-73.43,27.03-69.5,97.84-19.61-68.16-27.03-73.43-97.85-69.5,68.16-19.61,73.43-27.03,69.5-97.85,19.6,68.16,27.03,73.43,97.84,69.5Z"/>
      <path class="cls-9" d="M482.79,1475.38c-70.04,11.11-76.19,17.84-80.96,88.59-11.11-70.04-17.84-76.19-88.6-80.96,70.05-11.11,76.19-17.84,80.96-88.6,11.11,70.04,17.84,76.19,88.59,80.96Z"/>
      <path class="cls-11" d="M829.2,689.54c-42.99,12.37-46.32,17.05-43.84,61.72-12.37-42.99-17.05-46.32-61.72-43.84,42.99-12.37,46.32-17.05,43.84-61.72,12.37,42.99,17.05,46.32,61.72,43.84Z"/>
      <path class="cls-10" d="M605,1419.64c-44.18,7.01-48.06,11.25-51.07,55.88-7.01-44.18-11.25-48.06-55.89-51.07,44.18-7.01,48.06-11.25,51.07-55.89,7.01,44.18,11.25,48.06,55.88,51.07Z"/>
    </g>
    <g>
      <path class="cls-8" d="M357.75,922.52c-2.23-11.37,5.21-22.43,16.59-24.66,2.22-.43,4.45-.51,6.64-.23,2.26,2.69,3.79,5.88,4.47,9.39l.45,2.31c-.51.34-1.03.69-1.54,1.02-8.63,5.65-17.41,10.34-26.25,14.01l-.36-1.84ZM609.59,867.46c1.66-.18,3.33-.38,5.03-.6,2.49-.32,5.09-.47,7.76-.43,20.45,7.48,41.82,15.2,63.59,22.97,7.68,4.47,15.55,9.43,23.44,14.57-19.42-7.11-86.53-31.66-99.82-36.52Z"/>
      <g>
        <path class="cls-7" d="M918.53,795.51l-356.97-52.01-46.38-1.84-20.56,31.86c-6.04,9.36-3.27,21.87,6.19,27.75,18.23,11.34,53,22.97,107.47,2.49,86.23-32.41,243.04,113.19,312.25,25.02l30.66-36.61-32.65,3.35Z"/>
        <path class="cls-5" d="M467.76,839.48s-25.57,118.94-147.85,139.96l-55.03-4.66-45.31-8.62-61.42-24.34s-25.02-4.98-34.75,5.92c-9.72,10.9-1.89,64.3-1.89,64.3,0,0,67.81,247.58,128.79,249.34l24.54.31,50.35-14.59,123.68-39.55s199.06-49.16,136.18-170.46c-62.87-121.29,94.38-187.38,94.38-187.38l-174.93-23.54-24.49-6.04-12.27,19.35Z"/>
        <polygon class="cls-4" points="447.6 1030.68 379.77 1005.04 352.02 1078.44 399.98 1184.72 497.3 1140.8 447.6 1030.68"/>
        <path class="cls-3" d="M235.99,971.12c-22.91-6.35-70.06-33.93-103.36-26.14-15.09,3.54-17.9,23.13-11.01,56.07,14.05-3.9,38.56-29.17,70.58-16.09,61.91,25.3,219.35,65.42,279.38-144.78-34.96,78.56-97.42,169.23-235.59,130.93Z"/>
        <g>
          <path class="cls-2" d="M245.42,1332.97l.58,1.28c-.4-.82-.58-1.28-.58-1.28Z"/>
          <path class="cls-2" d="M1321.87,925.62l-57.67,46.06-163.29,82.04-189.5,90.53-209,84.31-263.36,115.51c-148.49,68.56-188.05.53-193.06-9.82l-.58-1.28-40.68-90.14c34.56,72.87,158.88,11.76,298.27-34.45,139.39-46.21,394.33-121.2,394.33-121.2,441.04-165.65,457.79-264.62,457.79-264.62,5.47,5.71,10.03,11.29,13.8,16.74,11.03,52.4-47.07,86.34-47.07,86.34Z"/>
        </g>
        <path class="cls-3" d="M235.99,971.12c-22.91-6.35-70.06-33.93-103.36-26.14-15.09,3.54-17.9,23.13-11.01,56.07,14.05-3.9,38.56-29.17,70.58-16.09,61.91,25.3,219.35,65.42,279.38-144.78-34.96,78.56-97.42,169.23-235.59,130.93Z"/>
        <path class="cls-6" d="M1013.92,1024.72c113.95-53.73,318.88-150.82,328.77-210.56-18.41-27.14-39.83-42.55-63.7-45.22-403.98,292.5-406.79,120.01-409.37,88.15,0,0-40.1,10.98-110.19-2.44,63.46,98.09-99.71,161.8-53.4,267.17,102.12-27.81,224.77-57.92,307.88-97.11Z"/>
        <path class="cls-4" d="M751.86,1116.56c-54.41,14.58-105.8,28.35-145.75,42.1-15.42,5.31-33.15,11.43-52.32,18.06-84.08,29.05-199.24,68.83-268.23,91.11-33.02,10.67-68.71-5.13-83.02-36.74-76.64-169.23-101.94-250.35-87.35-279.97,3.31-6.72,8.8-11.15,15.88-12.81,26.29-6.16,58.25,7.02,83.94,17.6,9.07,3.74,16.91,6.97,22.81,8.6,71.61,19.85,128.19,6.6,172.99-40.5,37.95-39.91,59-95.38,74.37-135.89,5.67-14.95,10.57-27.86,15.24-36.99,2.78-5.43,9.29-18.15,20.06-16.89,11.72,1.37,39,5.39,76.76,10.96,80.22,11.83,201.46,29.7,298.87,40.61,141.57,15.85,304.99-2.74,343.23-17.75,35.77-14.04,69.22-4.95,96.71,26.27,11.14,12.65,11.98,31.61,2,45.08-20.04,27.03-65.86,60.08-140.1,101.04-62.81,34.66-134.01,68.23-181.12,90.45-2.64,1.24-5.32,2.48-8.04,3.71-71.44,32.24-169.79,58.59-256.94,81.94ZM511.27,760.09c-3.97,8.32-8.29,19.71-13.29,32.89-15.78,41.6-37.39,98.56-77.25,140.47-22.14,23.28-47.65,39.16-75.82,47.2-32.76,9.34-70.02,8.36-110.75-2.93-6.69-1.86-14.88-5.23-24.37-9.14-22.61-9.32-53.59-22.08-75.6-16.93-3.13.73-5.2,2.44-6.72,5.53-4.29,8.71-5.34,31.29,14.04,89.38,14.34,42.98,37.69,99.82,73.5,178.89,11.44,25.26,39.96,37.88,66.34,29.36,68.86-22.24,183.94-62,267.97-91.03,19.18-6.63,36.91-12.75,52.34-18.06,40.4-13.91,92.02-27.74,146.66-42.38,89.91-24.09,191.81-51.39,262.68-84.81,95.23-44.9,272.49-128.48,316.06-187.26,6.16-8.31,5.63-20.04-1.27-27.87-23.68-26.89-51.08-34.49-81.44-22.58-21.71,8.52-75.2,16.89-136.26,21.31-74.12,5.37-149.94,4.41-213.5-2.7-97.65-10.93-219.03-28.83-299.35-40.67-37.29-5.5-64.33-9.48-76.03-10.87-.68.39-3.28,2.41-7.95,12.2Z"/>
        <path class="cls-4" d="M581.69,1162.66l-1.39-2.73c-37.96-74.44-69-164.04-39.38-314.24l-5.22-1.03c-29.57,149.97.72,240.2,38.48,314.96l-23.4,8.08c-83.89,28.98-198.79,68.67-267.75,90.96-28.63,9.25-59.58-4.45-71.99-31.87-8.06-17.81-15.6-34.73-22.4-50.3,4.31-49.31,24.77-63.68,44.57-77.58,12.52-8.79,25.46-17.88,33.27-35.49,8.42-18.98,9.93-45.21,4.7-82.37,26.98,3.49,52.21,1.76,75.05-5.17,21.18-6.43,40.87-17.49,58.52-32.9,27.44-23.95,50-57.5,70.98-105.6l-4.88-2.13c-29.84,68.42-83.3,157.37-202.42,140.04l-3.55-.52.53,3.54c5.66,37.97,4.46,64.33-3.79,82.93-7.21,16.26-18.99,24.53-31.47,33.29-20.89,14.67-42.49,29.83-46.87,82.16l-.06.67.27.62c6.88,15.77,14.52,32.92,22.7,50.99,13.53,29.89,47.27,44.83,78.48,34.74,69.02-22.3,183.94-62,267.85-90.99l29.18-10.08Z"/>
        <path class="cls-4" d="M1286.02,770.24c-87.39,68-168.57,117.23-227.38,143.78h-.02c-73.31,33.09-127.36,39.83-160.64,20.04-22.75-13.53-31.05-36.01-34.42-53.96-2.89.06-5.78.04-8.65.09,5.14,28.41,18.05,49.06,38.65,61.31,35.85,21.32,92.58,14.73,168.61-19.58,65.62-29.63,159.16-86.84,233.61-148.84-4.91-2.15-9.77-2.83-9.77-2.83Z"/>
        <path class="cls-4" d="M843.03,885.31c-64.64-7.98-299.7-36.62-370.21-45.21l-5.07-.62,2.04-4.68c7.18-16.47,12.11-29.84,16.45-41.64,3.95-10.73,7.36-20,11.38-28.53l1.29-2.73,2.95.63c44.56,9.51,153.22,21.15,240.53,30.5,29.59,3.17,55.14,5.91,74.92,8.21,30.73,3.58,54.64-1.23,56.86-11.43l.73-3.37,3.42.4c5.88.69,11.72,1.36,17.45,2,25.55,2.86,53.05,4.74,81.75,5.57l4.95.14-1.41,4.74c-10.17,34.09-27.41,58.51-51.24,72.57-3.1,1.83-6.3,3.49-9.61,4.98-21.02,9.49-46.4,12.25-77.17,8.45ZM894.93,796.41c-4.75-.53-9.58-1.09-14.45-1.65-6.99,14.96-37,17.19-64.05,14.04-19.74-2.3-45.28-5.03-74.85-8.2-85.6-9.17-191.69-20.53-238.32-30-3.37,7.51-6.41,15.78-9.88,25.19-3.96,10.76-8.4,22.83-14.6,37.38,76.03,9.26,301.99,36.79,365.18,44.6,66.89,8.26,108.91-16.57,128.32-75.89-27.09-.91-53.09-2.74-77.36-5.46Z"/>
        <g>
          <path class="cls-4" d="M969.49,797.84c-3.18-.12-6.36-.31-9.55-.46-8.52,29.07-31.73,52.7-48.25,60.15-17.3,7.81-39.54,10.11-66.08,6.82-56.67-6.99-270.21-32.63-365.59-44.23-1.07,2.68-2.21,5.43-3.4,8.29,95.94,11.65,310.74,37.47,367.93,44.52,28.14,3.48,51.92.95,70.7-7.52h0c19.66-8.87,41.61-25.04,54.24-67.58Z"/>
          <path class="cls-4" d="M493.98,783.32c54.5,8.97,171.25,22.66,246.3,30.7,28.99,3.11,54.95,5.89,74.6,8.18,24.75,2.88,46,1.03,59.83-5.2,4.52-2.04,15.46-7.25,20.28-24.41-3.28-.37-6.65-.76-9.99-1.15-3.24,11.41-10.01,15.95-13.84,17.68-12.41,5.6-32.04,7.2-55.27,4.49-19.7-2.29-45.76-5.08-74.67-8.18-74.51-7.98-187.98-21.23-243.98-30.31-1.08,2.63-2.16,5.38-3.24,8.21Z"/>
        </g>
        <path class="cls-3" d="M1291.94,944.33c-66.7,60.04-581.74,267.14-760.39,347.77-178.65,80.62-250.87,87.88-280.23,48.16-4.18-5.65-8.03-12.25-11.61-19.3,5.7,14.19,12.39,27.7,20.13,38.17,29.36,39.72,101.58,32.47,280.23-48.16,178.65-80.62,693.69-287.73,760.39-347.77,50.92-45.84,87.81-87.96,56.14-141.9,14.12,45.2-19.83,82.68-64.66,123.03Z"/>
        <g>
          <path class="cls-4" d="M751.55,998.15c-21.92,33.45-48.63,70.92-31.78,119.94-2.85.77-5.63,1.53-8.46,2.3-15.89-62.16,10.47-92.6,33.01-126.98,23.89-36.43,49.56-76.44,34.2-121.41,3.19.73,6.38,1.46,9.58,2.17,13.03,50.98-13.5,88.81-36.56,123.98Z"/>
          <path class="cls-4" d="M568.35,1164.44c-2.68.93-5.38,1.86-8.14,2.81-48.17-98.86-66.05-189.69-37.96-329.33,2.76.72,5.54,1.38,8.29,2.12-27.19,135.14-8.87,230.48,37.81,324.39Z"/>
        </g>
        <path class="cls-8" d="M385.73,1047.4l10.81-4.88-49.2-109.03c-8.3-18.38-.09-40.09,18.29-48.39,18.38-8.3,40.09-.09,48.39,18.29l10.81-4.88c-10.99-24.35-39.73-35.21-64.08-24.23-24.35,10.99-35.21,39.73-24.23,64.08l49.2,109.03Z"/>
        <path class="cls-4" d="M400.61,1051.53l10.81-4.88-49.2-109.03c-8.3-18.38-.09-40.09,18.29-48.39,18.38-8.3,40.09-.09,48.39,18.29l10.81-4.88c-10.99-24.35-39.73-35.21-64.08-24.23-24.35,10.99-35.21,39.73-24.23,64.08l49.2,109.03Z"/>
        <path class="cls-4" d="M138.23,800.69l100.34,101.6c15.6,7.57,30.52,12.68,44.92,15.28-.59-7.58-.05-15.13,1.49-22.44l-92.94-94.1h0c417.84-412.67,1091.11-408.48,1503.79,9.36h0s-512.29,505.95-512.29,505.95c-134.92,133.25-352.3,131.89-485.55-3.02h0c-15.04,2.62-30.26,5.26-45.65,7.93h0l286.58,290.17,810.72-800.69L948.95,0,138.23,800.69Z"/>
        <path class="cls-8" d="M382.34,1051.1c3.59,7.96,12.96,11.5,20.92,7.91,7.96-3.59,11.5-12.96,7.91-20.92-3.59-7.96-12.96-11.5-20.92-7.91-7.96,3.59-11.5,12.96-7.91,20.92Z"/>
      </g>
    </g>
    <circle class="cls-8" cx="963.42" cy="198.98" r="74.12" transform="translate(11.12 445.75) rotate(-26.2)"/>
  </g>
  <text class="cls-12" transform="translate(254.82 1877.79)"><tspan x="0" y="0">Urban Walkers</tspan></text>
</svg>